HIERARCHY
ROOT pelvis
{
  OFFSET 0 100 0
  CHANNELS 6 Xposition Yposition Zposition Zrotation Xrotation Yrotation
  JOINT pelvis_right_femur
  {
    OFFSET -10.78128 -3.44521 -0.5502486
    CHANNELS 3 Zrotation Xrotation Yrotation
    JOINT right_femur_tibia
    {
      OFFSET -0.8047443 -44.0398 -0.1307829
      CHANNELS 3 Zrotation Xrotation Yrotation
      JOINT right_tibia_foot
      {
        OFFSET 3.006224 -47.83518 -5
        CHANNELS 3 Zrotation Xrotation Yrotation
        End Site
        {
          OFFSET 0 -5 15
        }
      }
    }
  }
  JOINT pelvis_left_femur
  {
    OFFSET 10.78128 -3.44521 -0.5502486
    CHANNELS 3 Zrotation Xrotation Yrotation
    JOINT left_femur_tibia
    {
      OFFSET 0.8047443 -44.0398 -0.1307829
      CHANNELS 3 Zrotation Xrotation Yrotation
      JOINT left_tibia_foot
      {
        OFFSET -4.370144 -48.10324 -4.275266
        CHANNELS 3 Zrotation Xrotation Yrotation
        End Site
        {
          OFFSET 0 -5 15
        }
      }
    }
  }
  JOINT pelvis_spine1
  {
    OFFSET 0 6.468898 -3.129235
    CHANNELS 3 Zrotation Xrotation Yrotation
    JOINT spine1
    {
      OFFSET 0 23.15396 4.99043
      CHANNELS 3 Zrotation Xrotation Yrotation
      JOINT spine2
      {
        OFFSET 0 20.79997 -5.064912
        CHANNELS 3 Zrotation Xrotation Yrotation
        JOINT neck
        {
          OFFSET 0 14.38658 9.616178
          CHANNELS 3 Zrotation Xrotation Yrotation
          End Site
          {
            OFFSET 0 20 0
          }
        }
      }
      JOINT right_manubrium
      {
        OFFSET -5.722621 16.35077 3.967754
        CHANNELS 3 Zrotation Xrotation Yrotation
        JOINT right_clavicle
        {
          OFFSET -13.16364 1.694482 -4.693211
          CHANNELS 3 Zrotation Xrotation Yrotation
          JOINT right_humerus
          {
            OFFSET -28.5034 -0.3100689 -2.792744
            CHANNELS 3 Zrotation Xrotation Yrotation
            JOINT right_radius
            {
              OFFSET -25.15693 0.02248979 -1.271978
              CHANNELS 3 Zrotation Xrotation Yrotation
              End Site
              {
                OFFSET -15 0 0
              }
            }
          }
        }
      }
      JOINT left_manubrium
      {
        OFFSET 5.722621 16.35077 3.967754
        CHANNELS 3 Zrotation Xrotation Yrotation
        JOINT left_clavicle
        {
          OFFSET 13.16364 1.694482 -4.693211
          CHANNELS 3 Zrotation Xrotation Yrotation
          JOINT left_humerus
          {
            OFFSET 29.39168 -1.063119 -2.237045
            CHANNELS 3 Zrotation Xrotation Yrotation
            JOINT left_radius
            {
              OFFSET 24.59957 -0.9528479 0.9047498
              CHANNELS 3 Zrotation Xrotation Yrotation
              End Site
              {
                OFFSET 15 -0 -0
              }
            }
          }
        }
      }
    }
  }
}
MOTION
Frames: 17
Frame Time: 0.0416666666667
0 103.5113 0 0.8804406 -1.285631 0.2118116 2.953943 -15.62515 7.897549 -0 39.22958 -0 -5.628953 -14.29313 -2.979998 -7.179523 6.129913 -22.29764 -0 4.588948 -0 6.664164 -18.14912 25.49263 -1.271494 -1.314164 4.628182 3.070769 7.211182 -8.367466 1.069441 21.15771 7.25622 2.237948 -27.31981 9.716007 4.904724 -19.54678 11.2894 88.22757 36.49222 -22.74128 -0 0 15.43054 -6.719983 10.37517 5.629974 3.413168 -18.70517 -1.155174 -97.80777 38.73835 28.57298 0 0 -25.52468 -7.964472 11.87622 27.4411
0.4260482 103.4965 1.223457 0.9092112 -1.277997 0.429754 3.110879 -17.02169 8.414267 -0 41.52208 -0 -5.554117 -13.95206 -3.262858 -7.409222 7.809865 -22.97351 -0 6.325159 -0 6.80293 -18.32775 25.64866 -1.172329 -1.491059 4.562281 3.227893 7.27968 -8.600693 0.9944831 21.06112 7.284222 2.259478 -27.87369 9.753763 4.849378 -19.79689 11.36065 88.82468 36.61158 -23.55935 -0 0 15.30923 -5.926267 10.09057 5.240215 3.434768 -19.03858 -1.173607 -98.20827 38.8931 29.13402 0 0 -26.11342 -7.824574 12.35377 27.34755
0.7605824 103.3511 2.775123 0.771883 -1.145336 0.6762169 3.350432 -20.09624 7.599 -0 38.55313 -0 -5.751005 -12.60797 -3.511732 -7.043964 10.40289 -22.17281 -0 6.456417 -0 6.268341 -19.13043 24.50735 -1.382779 -1.261569 4.545166 2.977874 7.384774 -8.278918 1.036506 21.21328 7.331563 2.443575 -26.84275 9.567371 5.02025 -19.21177 11.32516 87.97095 36.5515 -22.33781 -0 0 14.99835 -7.53662 10.57235 5.902335 3.669705 -18.917 -1.306119 -96.55244 37.42271 27.01003 0 0 -25.05562 -6.603029 12.24632 25.36355
1.031851 103.0588 4.520686 0.6499193 -0.9542815 0.9226931 3.561785 -22.19685 7.011362 -0 35.64695 -0 -6.006667 -12.0195 -3.60517 -6.754364 11.97848 -21.63946 -0 6.202425 -0 5.985979 -19.67653 23.76869 -1.423135 -1.24362 4.512845 2.943968 7.452331 -8.247874 1.023577 21.23355 7.359352 2.520927 -26.66711 9.510765 5.060684 -19.08842 11.3391 87.88302 36.56923 -22.19498 -0 0 14.83277 -7.839143 10.64267 6.001847 3.766942 -19.00219 -1.364554 -96.10089 36.91636 26.43985 0 0 -24.88558 -6.080899 12.37983 24.57198
1.227099 102.5497 6.616442 0.4907277 -0.7903038 1.179768 3.728429 -24.76859 6.066513 -0 31.65717 -0 -6.27915 -10.981 -3.728359 -6.360623 13.91869 -20.68315 -0 5.848999 -0 5.421088 -20.35659 22.60818 -1.495269 -1.189395 4.402406 2.90122 7.526748 -8.233516 1.020419 21.2834 7.403978 2.622609 -26.33875 9.444874 5.108153 -18.765 11.32953 87.87943 36.5369 -22.15887 -0 0 14.37959 -8.320331 10.77264 6.117542 3.935553 -19.16775 -1.47171 -95.18568 36.22378 25.19563 0 0 -24.86721 -5.312492 12.4985 23.39981
1.356958 101.8217 9.117936 0.3411955 -0.7080944 1.453706 3.794224 -27.05991 5.037967 -0 27.74469 -0 -6.488947 -9.791642 -3.850817 -5.991733 15.6672 -19.57535 -0 5.620986 -0 4.715859 -20.94508 21.34809 -1.536544 -1.168823 4.277052 2.903477 7.581288 -8.282876 1.011573 21.31166 7.44486 2.695894 -26.16748 9.412568 5.128626 -18.50219 11.32114 88.04998 36.51203 -22.37321 -0 0 13.91803 -8.540488 10.83032 6.112019 4.076489 -19.37228 -1.563241 -94.46608 35.76625 24.18477 0 0 -25.08068 -4.716293 12.63279 22.51294
1.427747 100.878 12.16209 0.1983862 -0.7718153 1.75966 3.725752 -29.25217 3.791046 -0 23.81486 -0 -6.592051 -8.126928 -4.027386 -5.636431 17.45823 -18.11899 -0 5.813597 -0 3.689658 -21.45109 19.77621 -1.579685 -1.144952 4.103943 2.922566 7.629329 -8.371171 1.005359 21.34521 7.492575 2.76775 -25.99101 9.391735 5.139995 -18.16359 11.30089 88.3469 36.46301 -22.76173 -0 0 13.30292 -8.729282 10.88558 6.057011 4.240813 -19.63646 -1.672045 -93.60346 35.3179 22.93604 0 0 -25.48419 -4.076501 12.76393 21.56769
1.455133 99.75684 15.85378 0.07959728 -1.013198 2.105162 3.533826 -31.00471 2.436123 -0 20.23905 -0 -6.563722 -6.120955 -4.254824 -5.335329 19.02953 -16.38454 -0 6.690351 -0 2.379587 -21.73186 18.00599 -1.618313 -1.121445 3.911516 2.954476 7.664539 -8.482803 1.002455 21.37883 7.539736 2.827945 -25.83494 9.384441 5.141381 -17.80355 11.27274 88.71781 36.39697 -23.25482 -0 0 12.63404 -8.862093 10.93079 5.96409 4.403123 -19.9181 -1.781069 -92.73489 34.93661 21.64713 0 0 -26.00542 -3.487905 12.87313 20.70359
1.458276 98.53572 20.28651 -0.00436105 -1.4728 2.489507 3.271232 -32.10533 1.070114 -0 17.25459 -0 -6.384417 -3.830874 -4.554829 -5.102274 20.23566 -14.38861 -0 8.701534 -0 0.7806203 -21.64716 16.08921 -1.659203 -1.090517 3.700869 2.989484 7.691924 -8.604996 1.004362 21.41784 7.587078 2.882696 -25.6625 9.383095 5.137498 -17.40509 11.23593 89.1296 36.30777 -23.80309 -0 0 11.90571 -8.998308 10.98209 5.858973 4.570944 -20.21205 -1.895298 -91.81607 34.56013 20.2578 0 0 -26.60028 -2.907469 12.95471 19.85033
1.459588 97.34593 25.48622 -0.03969788 -2.160205 2.895099 3.061327 -32.23281 -0.07595725 -0 15.22288 -0 -6.061439 -1.521357 -4.928842 -4.937937 20.79855 -12.28693 -0 12.31127 -0 -0.9912536 -21.02673 14.23002 -1.701705 -1.05193 3.500628 3.015954 7.714311 -8.712571 1.010892 21.46042 7.629396 2.93126 -25.47055 9.380824 5.13246 -17.01031 11.1961 89.50384 36.20483 -24.29743 -0 0 11.20933 -9.164363 11.04353 5.774563 4.72946 -20.47945 -2.004652 -90.93688 34.18053 18.90928 0 0 -27.15396 -2.36713 12.99988 19.05035
1.478068 96.36889 31.39253 -0.01918952 -3.063073 3.283912 3.056971 -31.12212 -0.7448956 -0 14.42796 -0 -5.627583 0.4825086 -5.368083 -4.810546 20.45814 -10.27969 -0 17.98073 -0 -2.781661 -19.72706 12.6685 -1.746328 -1.005309 3.349731 3.016451 7.739201 -8.769302 1.020913 21.50452 7.6606 2.976202 -25.24895 9.365404 5.133265 -16.67458 11.16194 89.72861 36.10496 -24.58124 -0 0 10.66678 -9.408448 11.12272 5.760679 4.862217 -20.67029 -2.097844 -90.20525 33.77084 17.78005 0 0 -27.49808 -1.887262 13.00302 18.32723
1.521175 95.80952 37.83699 0.05053701 -4.121407 3.59484 3.377447 -28.601 -0.7248049 -0 14.94183 -0 -5.161739 1.770747 -5.826985 -4.661528 18.97707 -8.610572 -0 25.90299 -0 -4.393702 -17.68566 11.66814 -1.792196 -0.9507274 3.306671 2.967138 7.77342 -8.723618 1.033555 21.54624 7.670585 3.01745 -24.99129 9.322181 5.148566 -16.48409 11.14508 89.64495 36.03323 -24.43343 -0 0 10.46442 -9.786178 11.22711 5.88553 4.94027 -20.70616 -2.155276 -89.7904 33.32765 17.15189 0 0 -27.39527 -1.526137 12.95113 17.75782
1.577912 95.8381 44.55027 0.140971 -5.220391 3.745746 4.034619 -24.65686 0.03433625 -0 16.43158 -0 -4.792383 1.92626 -6.21202 -4.42423 16.19156 -7.484309 -0 35.73659 -0 -5.643641 -14.97274 11.42768 -1.839407 -0.8857377 3.428027 2.843392 7.820953 -8.523679 1.049582 21.58321 7.648666 3.053248 -24.68516 9.237767 5.186145 -16.51796 11.15502 89.09713 36.00471 -23.63552 -0 0 10.78205 -10.35863 11.3651 6.218655 4.934385 -20.50648 -2.157527 -89.84346 32.85621 17.28285 0 0 -26.61608 -1.350872 12.8244 17.43024
1.622766 96.50786 51.21161 0.2051926 -6.19267 3.648341 4.896729 -19.49696 1.345325 -0 18.09908 -0 -4.665214 0.6592321 -6.390208 -4.050981 12.07353 -6.979124 -0 46.22562 -0 -6.399163 -11.852 11.99871 -1.890131 -0.8039359 3.732093 2.633266 7.878361 -8.147886 1.072715 21.61803 7.589216 3.079792 -24.31103 9.108754 5.247006 -16.79225 11.19142 88.03003 35.9981 -22.10345 -0 0 11.67627 -11.16524 11.54197 6.791773 4.832954 -20.03602 -2.097771 -90.39073 32.36118 18.22498 0 0 -25.08397 -1.401249 12.59992 17.39502
1.636953 97.68821 57.5634 0.203386 -6.875391 3.245598 5.715965 -13.59879 2.779334 -0 18.93836 -0 -4.841052 -1.913822 -6.253254 -3.529848 6.856515 -6.941033 -0 55.13883 -0 -6.637599 -8.792794 13.19214 -1.949419 -0.6957832 4.167237 2.349605 7.935582 -7.631962 1.10906 21.66031 7.497617 3.09416 -23.84263 8.946895 5.32054 -17.21386 11.23905 86.57544 35.94819 -20.00565 -0 0 12.97776 -12.20154 11.75704 7.56474 4.660882 -19.35178 -1.995056 -91.24339 31.8299 19.6728 0 0 -22.99449 -1.636055 12.26431 17.5915
1.634142 99.08583 63.53552 0.1382869 -7.208483 2.55491 6.23966 -7.598128 3.828378 -0 18.35789 -0 -5.204965 -5.119404 -5.790401 -2.870448 1.071159 -6.99976 -0 60.08529 -0 -6.470481 -6.325146 14.6076 -2.020948 -0.5566113 4.630837 2.028626 7.982761 -7.060142 1.162839 21.72062 7.388809 3.096367 -23.26964 8.774939 5.386758 -17.62345 11.27507 85.01606 35.78822 -17.72029 -0 0 14.35532 -13.4035 11.99929 8.432509 4.471122 -18.5886 -1.888423 -92.07716 31.2556 21.09908 0 0 -20.74993 -1.942426 11.8321 17.86431
1.661111 100.362 69.25089 0.0547248 -7.263764 1.6689 6.34593 -1.987192 4.193655 -0 16.57753 -0 -5.54028 -8.097958 -5.076764 -2.081056 -4.689372 -6.802739 -0 59.87515 -0 -6.067993 -4.771427 15.86959 -2.101444 -0.3943502 5.044758 1.706709 8.01857 -6.50788 1.231818 21.80024 7.276191 3.088749 -22.61971 8.611267 5.428859 -17.92168 11.28748 83.59072 35.50296 -15.57457 -0 0 15.56236 -14.674 12.2481 9.293315 4.304599 -17.86505 -1.807911 -92.68186 30.65742 22.16368 0 0 -18.67442 -2.222913 11.34601 18.08639
